<svg width="177.000000" height="40.000000" viewBox="0 0 177 40" fill="none" xmlns="http://www.w3.org/2000/svg" xmlns:xlink="http://www.w3.org/1999/xlink">
	<desc>
			Created with Pixso.
	</desc>
	<defs>
		<clipPath id="clip425_904">
			<rect id="Frame" rx="0.000000" width="176.615860" height="39.615864" transform="translate(0.192069 0.192069)" fill="white" fill-opacity="0"/>
		</clipPath>
	</defs>
	<rect id="Frame" rx="0.000000" width="176.615860" height="39.615864" transform="translate(0.192069 0.192069)" fill="#FFFFFF" fill-opacity="0"/>
	<g clip-path="url(#clip425_904)">
		<path id="Vector" d="M39.21 0L39.21 13.55L175.42 13.55L175.42 0L39.21 0ZM0 21.9L0 40L26.72 40L26.72 36.62L12.58 36.62L12.58 32.69L26.72 32.69L26.72 29.23L12.51 29.23L12.51 25.27L26.72 25.27L26.72 21.9L0 21.9Z" fill="#D4082C" fill-opacity="1.000000" fill-rule="evenodd"/>
		<path id="Vector" d="M44.8 21.9C41.7 21.9 39.21 24.37 39.21 27.42L39.21 40L63.47 40C63.47 40 63.5 37.57 63.5 37.33C63.5 37.08 63.32 36.96 63.12 36.96C62.93 36.95 47.23 36.96 47.23 36.96L47.23 32.48L61.03 32.48L61.03 29.84C61.03 29.62 60.89 29.48 60.66 29.48L47.23 29.48L47.23 24.9L63.47 24.9L63.47 22.21C63.47 21.96 63.32 21.9 63.12 21.9L44.8 21.9L44.8 21.9ZM72.36 21.9C69.27 21.9 66.77 24.37 66.77 27.42L66.77 40L91.25 40L91.25 29.84C91.25 29.65 91.06 29.48 90.88 29.48C90.71 29.48 82.26 29.51 80.2 29.51C79.96 29.51 79.83 29.66 79.83 29.85L79.83 32.48L88.07 32.48L88.07 36.69L74.77 36.69L74.77 24.87L91.25 24.87L91.25 22.2C91.25 21.97 91.11 21.9 90.88 21.9L72.36 21.9ZM100.52 21.9C97.43 21.9 94.93 24.37 94.93 27.42L94.93 40L119.41 40L119.41 29.84C119.41 29.65 119.25 29.48 119.06 29.48C118.89 29.48 110.45 29.51 108.39 29.51C108.15 29.51 108.04 29.66 108.04 29.85C108.04 30.03 108.01 32.48 108.01 32.48L116.25 32.48L116.25 36.69L102.96 36.69L102.96 24.87L119.41 24.87L119.41 22.2C119.41 21.97 119.29 21.9 119.06 21.9L100.52 21.9ZM128.75 21.9C125.65 21.9 123.16 24.37 123.16 27.42L123.16 40L147.41 40L147.41 37.33C147.41 37.08 147.27 36.96 147.07 36.96C146.88 36.95 131.18 36.96 131.18 36.96L131.18 32.48L144.95 32.48L144.95 29.84C144.95 29.62 144.83 29.48 144.6 29.48L131.18 29.48L131.18 24.9L147.41 24.9L147.41 22.21C147.41 21.96 147.23 21.9 147.04 21.9L128.75 21.9L128.75 21.9ZM156.25 21.9C153.16 21.9 150.69 24.37 150.69 27.42L150.69 40L158.69 40L158.69 32.48C158.69 32.48 167.22 39.67 166.93 39.47C167.3 39.76 167.47 40 167.83 40L176.61 40C177.47 40 176.64 39.35 176.64 39.35L168.4 32.48L170.58 32.48C173.25 32.48 175.42 29.81 175.42 27.17C175.42 24.54 173.28 21.9 170.62 21.9L156.25 21.9ZM158.69 24.9L169.49 24.9C170.41 24.9 171.58 25.61 171.58 27.21C171.58 28.64 170.34 29.51 169.49 29.51L158.69 29.51L158.69 24.9Z" fill="#242734" fill-opacity="1.000000" fill-rule="evenodd"/>
	</g>
</svg>
