<svg width="124.000000" height="124.000000" viewBox="0 0 124 124" fill="none" xmlns="http://www.w3.org/2000/svg" xmlns:xlink="http://www.w3.org/1999/xlink">
	<desc>
			Created with Pixso.
	</desc>
	<defs>
		<filter id="filter_425_976_dd" x="0.000000" y="0.000000" width="124.000000" height="124.000000" filterUnits="userSpaceOnUse" color-interpolation-filters="sRGB">
			<feFlood flood-opacity="0" result="BackgroundImageFix"/>
			<feColorMatrix in="SourceAlpha" type="matrix" values="0 0 0 0 0 0 0 0 0 0 0 0 0 0 0 0 0 0 127 0" result="hardAlpha"/>
			<feOffset dx="0" dy="0"/>
			<feGaussianBlur stdDeviation="0.333333"/>
			<feComposite in2="hardAlpha" operator="out" k2="-1" k3="1"/>
			<feColorMatrix type="matrix" values="0 0 0 0 0 0 0 0 0 0 0 0 0 0 0 0 0 0 0.039 0"/>
			<feBlend mode="normal" in2="BackgroundImageFix" result="effect_dropShadow_1"/>
			<feColorMatrix in="SourceAlpha" type="matrix" values="0 0 0 0 0 0 0 0 0 0 0 0 0 0 0 0 0 0 127 0" result="hardAlpha"/>
			<feOffset dx="0" dy="2"/>
			<feGaussianBlur stdDeviation="2"/>
			<feComposite in2="hardAlpha" operator="out" k2="-1" k3="1"/>
			<feColorMatrix type="matrix" values="0 0 0 0 1 0 0 0 0 0.86667 0 0 0 0 0.38824 0 0 0 0.078 0"/>
			<feBlend mode="normal" in2="effect_dropShadow_1" result="effect_dropShadow_2"/>
			<feColorMatrix in="SourceAlpha" type="matrix" values="0 0 0 0 0 0 0 0 0 0 0 0 0 0 0 0 0 0 127 0" result="hardAlpha"/>
			<feOffset dx="0" dy="16"/>
			<feGaussianBlur stdDeviation="8"/>
			<feComposite in2="hardAlpha" operator="out" k2="-1" k3="1"/>
			<feColorMatrix type="matrix" values="0 0 0 0 1 0 0 0 0 0.86667 0 0 0 0 0.38824 0 0 0 0.1 0"/>
			<feBlend mode="normal" in2="effect_dropShadow_2" result="effect_dropShadow_3"/>
			<feColorMatrix in="SourceAlpha" type="matrix" values="0 0 0 0 0 0 0 0 0 0 0 0 0 0 0 0 0 0 127 0" result="hardAlpha"/>
			<feOffset dx="0" dy="24"/>
			<feGaussianBlur stdDeviation="10.6667"/>
			<feComposite in2="hardAlpha" operator="out" k2="-1" k3="1"/>
			<feColorMatrix type="matrix" values="0 0 0 0 1 0 0 0 0 0.86667 0 0 0 0 0.38824 0 0 0 0.14 0"/>
			<feBlend mode="normal" in2="effect_dropShadow_3" result="effect_dropShadow_4"/>
			<feBlend mode="normal" in="SourceGraphic" in2="effect_dropShadow_4" result="shape"/>
		</filter>
	</defs>
	<g filter="url(#filter_425_976_dd)">
		<path id="back" d="M32 38C32 21.43 45.43 8 62 8C78.56 8 92 21.43 92 38C92 54.56 78.56 68 62 68C45.43 68 32 54.56 32 38Z" fill="#FFDD63" fill-opacity="1.000000" fill-rule="evenodd"/>
	</g>
	<path id="Shape" d="M55.4041 22.0967C57.1101 22.019 57.6558 22 61.9966 22L62.0015 22C66.3438 22 66.8872 22.019 68.5933 22.0967C70.2966 22.1747 71.46 22.4443 72.48 22.84C73.5332 23.2483 74.4233 23.795 75.3132 24.6851C76.2034 25.5743 76.75 26.467 77.1599 27.5194C77.5532 28.5367 77.8232 29.6995 77.9033 31.4027C77.98 33.1095 78 33.6548 78 38.0001C78 42.3456 77.98 42.8895 77.9033 44.5962C77.8232 46.299 77.5532 47.4619 77.1599 48.4796C76.75 49.5316 76.2034 50.4243 75.3132 51.3136C74.4243 52.2036 73.533 52.7517 72.481 53.1603C71.4629 53.556 70.2988 53.8257 68.5955 53.9037C66.8889 53.9813 66.3452 54.0004 61.9995 54.0004C57.6545 54.0004 57.1094 53.9813 55.4028 53.9037C53.6997 53.8257 52.5366 53.556 51.5188 53.1603C50.467 52.7517 49.5745 52.2036 48.6853 51.3136C47.7957 50.4243 47.249 49.5316 46.8401 48.4792C46.4446 47.4619 46.175 46.2992 46.0967 44.5959C46.0193 42.8892 46 42.3456 46 38.0001C46 33.6548 46.02 33.1091 46.0964 31.4025C46.1731 29.6997 46.4431 28.5367 46.8396 27.519C47.2498 26.467 47.7964 25.5743 48.6863 24.6851C49.5757 23.7954 50.4683 23.2487 51.5208 22.84C52.5381 22.4443 53.7007 22.1747 55.4041 22.0967ZM60.5662 24.8834C60.845 24.8829 61.1448 24.8831 61.4683 24.8832C61.6392 24.8833 61.8169 24.8834 62.0015 24.8834C66.2734 24.8834 66.7798 24.8987 68.4668 24.9753C70.0269 25.0468 70.8735 25.3074 71.4375 25.5264C72.1843 25.8164 72.7166 26.1631 73.2764 26.723C73.8362 27.2831 74.1829 27.8164 74.4736 28.5631C74.6926 29.1265 74.9536 29.9731 75.0247 31.5331C75.1013 33.2197 75.1179 33.7264 75.1179 37.9965C75.1179 42.2666 75.1013 42.7732 75.0247 44.46C74.9534 46.0199 74.6926 46.8666 74.4736 47.4299C74.1836 48.1766 73.8362 48.7083 73.2764 49.2679C72.7163 49.828 72.1846 50.1747 71.4375 50.4646C70.8743 50.6847 70.0269 50.9446 68.4668 51.016C66.7803 51.0927 66.2734 51.1093 62.0015 51.1093C57.729 51.1093 57.2229 51.0927 55.5361 51.016C53.9761 50.944 53.1294 50.6833 52.5652 50.4644C51.8184 50.1743 51.2852 49.8276 50.7251 49.2676C50.165 48.7076 49.8184 48.1757 49.5276 47.4286C49.3086 46.8652 49.0476 46.0186 48.9768 44.4586C48.9001 42.7719 48.8848 42.2653 48.8848 37.9926C48.8848 33.7198 48.9001 33.2158 48.9768 31.5291C49.0481 29.9691 49.3086 29.1224 49.5276 28.5583C49.8176 27.8118 50.165 27.2784 50.7251 26.7184C51.2852 26.1583 51.8184 25.8116 52.5652 25.521C53.1292 25.301 53.9761 25.041 55.5361 24.9694C57.0122 24.9027 57.5842 24.8827 60.5662 24.8794L60.5662 24.8834ZM68.6223 29.4594C68.6223 28.399 69.4822 27.54 70.5422 27.54L70.5422 27.5394C71.6023 27.5394 72.4622 28.3994 72.4622 29.4594C72.4622 30.5194 71.6023 31.3794 70.5422 31.3794C69.4822 31.3794 68.6223 30.5194 68.6223 29.4594ZM62.0012 29.7834C57.4636 29.7836 53.7847 33.4625 53.7847 38.0001C53.7847 42.5378 57.4639 46.2152 62.0015 46.2152C66.5393 46.2152 70.2168 42.5378 70.2168 38.0001C70.2168 33.4624 66.5388 29.7834 62.0012 29.7834ZM67.335 38.0001C67.335 35.0544 64.9468 32.6667 62.0015 32.6667C59.0559 32.6667 56.6682 35.0544 56.6682 38.0001C56.6682 40.9456 59.0559 43.3335 62.0015 43.3335C64.9468 43.3335 67.335 40.9456 67.335 38.0001Z" clip-rule="evenodd" fill="#242734" fill-opacity="1.000000" fill-rule="evenodd"/>
</svg>
