<svg width="57.999512" height="57.000000" viewBox="0 0 57.9995 57" fill="none" xmlns="http://www.w3.org/2000/svg" xmlns:xlink="http://www.w3.org/1999/xlink">
	<desc>
			Created with Pixso.
	</desc>
	<defs/>
	<path id="Vector" d="M17.77 15.62C17.77 18.16 15.67 20.22 13.09 20.22C10.51 20.22 8.41 18.16 8.41 15.62C8.41 13.09 10.51 11.03 13.09 11.03C15.67 11.03 17.77 13.09 17.77 15.62Z" fill="#FFDD63" fill-opacity="1.000000" fill-rule="evenodd"/>
	<path id="Vector" d="M17.43 13.57L16.23 12.16L11.28 16.22L10.01 14.97L8.69 16.27L11.16 18.71L17.43 13.57Z" fill="#242734" fill-opacity="1.000000" fill-rule="nonzero"/>
	<path id="Vector" d="M20.57 12.87L34.61 12.87L34.61 14.7L20.57 14.7L20.57 12.87Z" fill="#242734" fill-opacity="1.000000" fill-rule="evenodd"/>
	<path id="Vector" d="M20.57 16.54L36.48 16.54L36.48 18.38L20.57 18.38L20.57 16.54Z" fill="#242734" fill-opacity="1.000000" fill-rule="evenodd"/>
	<path id="Vector" d="M17.43 22.77L16.23 21.35L11.28 25.41L10.01 24.17L8.69 25.47L11.16 27.9L17.43 22.77Z" fill="#242734" fill-opacity="1.000000" fill-rule="nonzero"/>
	<path id="Vector" d="M20.57 22.06L40.22 22.06L40.22 23.9L20.57 23.9L20.57 22.06Z" fill="#242734" fill-opacity="1.000000" fill-rule="evenodd"/>
	<path id="Vector" d="M20.57 25.74L24.32 25.74L24.32 27.58L20.57 27.58L20.57 25.74Z" fill="#242734" fill-opacity="1.000000" fill-rule="evenodd"/>
	<path id="Vector" d="M26.19 25.74L40.22 25.74L40.22 27.58L26.19 27.58L26.19 25.74Z" fill="#242734" fill-opacity="1.000000" fill-rule="evenodd"/>
	<path id="Vector" d="M17.43 31.96L16.23 30.55L11.28 34.61L10.01 33.36L8.69 34.66L11.16 37.09L17.43 31.96Z" fill="#242734" fill-opacity="1.000000" fill-rule="nonzero"/>
	<path id="Vector" d="M20.57 31.25L40.22 31.25L40.22 33.09L20.57 33.09L20.57 31.25Z" fill="#242734" fill-opacity="1.000000" fill-rule="evenodd"/>
	<path id="Vector" d="M20.57 34.93L34.61 34.93L34.61 36.77L20.57 36.77L20.57 34.93Z" fill="#242734" fill-opacity="1.000000" fill-rule="evenodd"/>
	<path id="Vector" d="M36.48 34.93L40.22 34.93L40.22 36.77L36.48 36.77L36.48 34.93Z" fill="#242734" fill-opacity="1.000000" fill-rule="evenodd"/>
	<path id="Vector" d="M36.48 12.87L40.22 12.87L40.22 14.7L36.48 14.7L36.48 12.87Z" fill="#242734" fill-opacity="1.000000" fill-rule="evenodd"/>
	<path id="Vector" d="M55.19 42.29L53.32 42.29L51.45 42.29L49.58 42.29L47.7 42.29L47.7 4.59C47.7 2.06 45.61 0 43.03 0L4.67 0C2.09 0 0 2.06 0 4.59C0 7.13 2.09 9.19 4.67 9.19L4.67 57L43.96 57L43.96 51.48L47.7 51.48L47.7 47.8L49.58 47.8L51.45 47.8L53.32 47.8L55.19 47.8C56.74 47.8 57.99 46.56 57.99 45.04C57.99 43.52 56.74 42.29 55.19 42.29ZM45.83 4.59L45.83 42.29L43.96 42.29L43.96 7.35L43.03 7.35C41.48 7.35 40.22 6.11 40.22 4.59C40.22 3.07 41.48 1.83 43.03 1.83C44.57 1.83 45.83 3.07 45.83 4.59ZM1.87 4.59C1.87 3.07 3.13 1.83 4.67 1.83L39.31 1.83C38.72 2.6 38.35 3.55 38.35 4.59C38.35 5.63 38.72 6.58 39.31 7.35L4.67 7.35C3.13 7.35 1.87 6.11 1.87 4.59ZM6.54 55.16L6.54 9.19L42.09 9.19L42.09 42.29L15.75 42.29L7.33 45.04L15.75 47.8L42.09 47.8L42.09 55.16L6.54 55.16L6.54 55.16ZM13.24 45.04L14.96 44.48L14.96 45.61L13.24 45.04ZM45.83 49.64L43.96 49.64L43.96 47.8L45.83 47.8L45.83 49.64ZM47.7 45.96L16.83 45.96L16.83 44.12L47.7 44.12L47.7 45.96ZM51.45 45.96L49.58 45.96L49.58 44.12L51.45 44.12L51.45 45.96ZM55.19 45.96L53.32 45.96L53.32 44.12L55.19 44.12C55.7 44.12 56.12 44.54 56.12 45.04C56.12 45.55 55.7 45.96 55.19 45.96Z" fill="#242734" fill-opacity="1.000000" fill-rule="nonzero"/>
</svg>
