<svg width="77.235596" height="49.024658" viewBox="0 0 77.2356 49.0247" fill="none" xmlns="http://www.w3.org/2000/svg" xmlns:xlink="http://www.w3.org/1999/xlink">
	<desc>
			Created with Pixso.
	</desc>
	<defs/>
	<path id="Vector" d="M71.63 20.81L69.64 12.86C70.18 12.74 70.59 12.26 70.59 11.68L70.59 10.4C70.59 7.62 68.33 5.35 65.54 5.35L56.49 5.35L56.49 2.71C56.49 1.34 55.37 0.22 54 0.22L7.84 0.22C6.47 0.22 5.35 1.34 5.35 2.71L5.35 24.51C5.35 25.17 5.89 25.71 6.55 25.71C7.22 25.71 7.76 25.17 7.76 24.51L7.76 2.71C7.76 2.66 7.79 2.63 7.84 2.63L54 2.63C54.04 2.63 54.08 2.66 54.08 2.71L54.08 24.51C54.08 25.17 54.62 25.71 55.28 25.71C55.95 25.71 56.49 25.17 56.49 24.51L56.49 23.14L70.67 23.14C70.67 23.14 70.67 23.15 70.67 23.15C70.67 23.15 70.67 23.15 70.67 23.15C72.42 23.15 73.9 24.29 74.41 25.87L70.67 25.87C70.01 25.87 69.47 26.41 69.47 27.07L69.47 29.64C69.47 31.71 71.16 33.4 73.24 33.4L74.6 33.4L74.6 38.69L71.45 38.69C70.42 35.71 67.59 33.56 64.26 33.56C60.93 33.56 58.1 35.71 57.06 38.69L56.48 38.69L56.48 29.64C56.48 28.97 55.95 28.43 55.28 28.43C54.62 28.43 54.08 28.97 54.08 29.64L54.08 38.69L29.14 38.69C28.11 35.71 25.27 33.56 21.94 33.56C18.61 33.56 15.78 35.71 14.75 38.69L7.84 38.69C7.79 38.69 7.76 38.66 7.76 38.61L7.76 35.97L12.97 35.97C13.63 35.97 14.17 35.43 14.17 34.77C14.17 34.1 13.63 33.56 12.97 33.56L1.43 33.56C0.76 33.56 0.22 34.1 0.22 34.77C0.22 35.43 0.76 35.97 1.43 35.97L5.35 35.97L5.35 38.61C5.35 39.98 6.47 41.1 7.84 41.1L14.33 41.1C14.33 41.12 14.33 41.15 14.33 41.18C14.33 45.38 17.74 48.79 21.94 48.79C26.14 48.79 29.56 45.38 29.56 41.18C29.56 41.15 29.55 41.12 29.55 41.1L56.65 41.1C56.65 41.12 56.65 41.15 56.65 41.18C56.65 45.38 60.06 48.79 64.26 48.79C68.46 48.79 71.87 45.38 71.87 41.18C71.87 41.15 71.87 41.12 71.87 41.1L75.8 41.1C76.46 41.1 77 40.56 77 39.9L77 27.07C77 23.91 74.67 21.28 71.63 20.81ZM56.49 7.76L65.54 7.76C67 7.76 68.19 8.94 68.19 10.4L68.19 10.48L56.49 10.48L56.49 7.76ZM56.49 20.74L56.49 12.89L67.17 12.89L69.13 20.74L56.49 20.74ZM21.94 46.39C19.07 46.39 16.73 44.05 16.73 41.18C16.73 38.31 19.07 35.97 21.94 35.97C24.82 35.97 27.15 38.31 27.15 41.18C27.15 44.05 24.82 46.39 21.94 46.39ZM64.26 46.39C61.39 46.39 59.05 44.05 59.05 41.18C59.05 38.31 61.39 35.97 64.26 35.97C67.13 35.97 69.47 38.31 69.47 41.18C69.47 44.05 67.13 46.39 64.26 46.39ZM74.6 31L73.24 31C72.48 31 71.87 30.39 71.87 29.64L71.87 28.27L74.6 28.27L74.6 31L74.6 31Z" fill="#242734" fill-opacity="1.000000" fill-rule="nonzero"/>
	<path id="Vector" d="M69.64 12.86C70.18 12.74 70.59 12.26 70.59 11.68L70.59 10.4C70.59 7.62 68.33 5.35 65.54 5.35L56.49 5.35L56.49 2.71C56.49 1.34 55.37 0.22 54 0.22L7.84 0.22C6.47 0.22 5.35 1.34 5.35 2.71L5.35 24.51C5.35 25.17 5.89 25.71 6.55 25.71C7.22 25.71 7.76 25.17 7.76 24.51L7.76 2.71C7.76 2.66 7.79 2.63 7.84 2.63L54 2.63C54.04 2.63 54.08 2.66 54.08 2.71L54.08 24.51C54.08 25.17 54.62 25.71 55.28 25.71C55.95 25.71 56.49 25.17 56.49 24.51L56.49 23.14L70.67 23.14C70.67 23.14 70.67 23.15 70.67 23.15C70.67 23.15 70.67 23.15 70.67 23.15C72.42 23.15 73.9 24.29 74.41 25.87L70.67 25.87C70.01 25.87 69.47 26.41 69.47 27.07L69.47 29.64C69.47 31.71 71.16 33.4 73.24 33.4L74.6 33.4L74.6 38.69L71.45 38.69C70.42 35.71 67.59 33.56 64.26 33.56C60.93 33.56 58.1 35.71 57.06 38.69L56.48 38.69L56.48 29.64C56.48 28.97 55.95 28.43 55.28 28.43C54.62 28.43 54.08 28.97 54.08 29.64L54.08 38.69L29.14 38.69C28.11 35.71 25.27 33.56 21.94 33.56C18.61 33.56 15.78 35.71 14.75 38.69L7.84 38.69C7.79 38.69 7.76 38.66 7.76 38.61L7.76 35.97L12.97 35.97C13.63 35.97 14.17 35.43 14.17 34.77C14.17 34.1 13.63 33.56 12.97 33.56L1.43 33.56C0.76 33.56 0.22 34.1 0.22 34.77C0.22 35.43 0.76 35.97 1.43 35.97L5.35 35.97L5.35 38.61C5.35 39.98 6.47 41.1 7.84 41.1L14.33 41.1C14.33 41.12 14.33 41.15 14.33 41.18C14.33 45.38 17.74 48.79 21.94 48.79C26.14 48.79 29.56 45.38 29.56 41.18C29.56 41.15 29.55 41.12 29.55 41.1L56.65 41.1C56.65 41.12 56.65 41.15 56.65 41.18C56.65 45.38 60.06 48.79 64.26 48.79C68.46 48.79 71.87 45.38 71.87 41.18C71.87 41.15 71.87 41.12 71.87 41.1L75.8 41.1C76.46 41.1 77 40.56 77 39.9L77 27.07C77 23.91 74.67 21.28 71.63 20.81L69.64 12.86ZM65.54 7.76C67 7.76 68.19 8.94 68.19 10.4L68.19 10.48L56.49 10.48L56.49 7.76L65.54 7.76ZM56.49 12.89L67.17 12.89L69.13 20.74L56.49 20.74L56.49 12.89ZM16.73 41.18C16.73 38.31 19.07 35.97 21.94 35.97C24.82 35.97 27.15 38.31 27.15 41.18C27.15 44.05 24.82 46.39 21.94 46.39C19.07 46.39 16.73 44.05 16.73 41.18ZM59.05 41.18C59.05 38.31 61.39 35.97 64.26 35.97C67.13 35.97 69.47 38.31 69.47 41.18C69.47 44.05 67.13 46.39 64.26 46.39C61.39 46.39 59.05 44.05 59.05 41.18ZM73.24 31C72.48 31 71.87 30.39 71.87 29.64L71.87 28.27L74.6 28.27L74.6 31L74.6 31L73.24 31Z" stroke="#FFFFFF" stroke-opacity="1.000000" stroke-width="0.457017"/>
	<path id="Vector" d="M21.94 38.69C20.57 38.69 19.46 39.81 19.46 41.18C19.46 42.55 20.57 43.66 21.94 43.66C23.31 43.66 24.43 42.55 24.43 41.18C24.43 39.81 23.31 38.69 21.94 38.69Z" fill="#242734" fill-opacity="1.000000" fill-rule="nonzero"/>
	<path id="Vector" d="M19.46 41.18C19.46 42.55 20.57 43.66 21.94 43.66C23.31 43.66 24.43 42.55 24.43 41.18C24.43 39.81 23.31 38.69 21.94 38.69C20.57 38.69 19.46 39.81 19.46 41.18Z" stroke="#FFFFFF" stroke-opacity="1.000000" stroke-width="0.457017"/>
	<path id="Vector" d="M64.26 38.69C62.89 38.69 61.77 39.81 61.77 41.18C61.77 42.55 62.89 43.66 64.26 43.66C65.63 43.66 66.74 42.55 66.74 41.18C66.74 39.81 65.63 38.69 64.26 38.69Z" fill="#242734" fill-opacity="1.000000" fill-rule="nonzero"/>
	<path id="Vector" d="M61.77 41.18C61.77 42.55 62.89 43.66 64.26 43.66C65.63 43.66 66.74 42.55 66.74 41.18C66.74 39.81 65.63 38.69 64.26 38.69C62.89 38.69 61.77 39.81 61.77 41.18Z" stroke="#FFFFFF" stroke-opacity="1.000000" stroke-width="0.457017"/>
	<path id="Vector" d="M50.15 33.56L32.2 33.56C31.54 33.56 31 34.1 31 34.77C31 35.43 31.54 35.97 32.2 35.97L50.15 35.97C50.82 35.97 51.36 35.43 51.36 34.77C51.36 34.1 50.82 33.56 50.15 33.56Z" fill="#242734" fill-opacity="1.000000" fill-rule="nonzero"/>
	<path id="Vector" d="M32.2 33.56C31.54 33.56 31 34.1 31 34.77C31 35.43 31.54 35.97 32.2 35.97L50.15 35.97C50.82 35.97 51.36 35.43 51.36 34.77C51.36 34.1 50.82 33.56 50.15 33.56L32.2 33.56Z" stroke="#FFFFFF" stroke-opacity="1.000000" stroke-width="0.457017"/>
	<path id="Vector" d="M19.38 28.43L3.99 28.43C3.33 28.43 2.79 28.97 2.79 29.64C2.79 30.3 3.33 30.84 3.99 30.84L19.38 30.84C20.04 30.84 20.58 30.3 20.58 29.64C20.58 28.97 20.04 28.43 19.38 28.43Z" fill="#242734" fill-opacity="1.000000" fill-rule="nonzero"/>
	<path id="Vector" d="M3.99 28.43C3.33 28.43 2.79 28.97 2.79 29.64C2.79 30.3 3.33 30.84 3.99 30.84L19.38 30.84C20.04 30.84 20.58 30.3 20.58 29.64C20.58 28.97 20.04 28.43 19.38 28.43L3.99 28.43Z" stroke="#FFFFFF" stroke-opacity="1.000000" stroke-width="0.457017"/>
	<path id="Vector" d="M42.03 12.12C41.56 11.65 40.8 11.65 40.33 12.12L29.64 22.81L24.08 17.25C23.61 16.78 22.84 16.78 22.37 17.25C21.91 17.72 21.91 18.48 22.37 18.95L28.79 25.36C29.02 25.59 29.33 25.71 29.64 25.71C29.94 25.71 30.25 25.59 30.49 25.36L42.03 13.82C42.5 13.35 42.5 12.59 42.03 12.12Z" fill="#242734" fill-opacity="1.000000" fill-rule="nonzero"/>
	<path id="Vector" d="M40.33 12.12L29.64 22.81L24.08 17.25C23.61 16.78 22.84 16.78 22.37 17.25C21.91 17.72 21.91 18.48 22.37 18.95L28.79 25.36C29.02 25.59 29.33 25.71 29.64 25.71C29.94 25.71 30.25 25.59 30.49 25.36L42.03 13.82C42.5 13.35 42.5 12.59 42.03 12.12C41.56 11.65 40.8 11.65 40.33 12.12Z" stroke="#FFFFFF" stroke-opacity="1.000000" stroke-width="0.457017"/>
	<circle id="Ellipse 15" cx="22.228516" cy="41.228516" r="6.000000" fill="#FFDD63" fill-opacity="1.000000"/>
	<circle id="Ellipse 16" cx="64.228516" cy="41.228516" r="6.000000" fill="#FFDD63" fill-opacity="1.000000"/>
</svg>
