<svg width="58.000000" height="58.000000" viewBox="0 0 58 58" fill="none" xmlns="http://www.w3.org/2000/svg" xmlns:xlink="http://www.w3.org/1999/xlink">
	<desc>
			Created with Pixso.
	</desc>
	<defs>
		<clipPath id="clip403_666">
			<rect id="kitchen 1" rx="0.000000" width="57.886719" height="57.886719" transform="translate(0.056641 0.056641)" fill="white" fill-opacity="0"/>
		</clipPath>
	</defs>
	<rect id="kitchen 1" rx="0.000000" width="57.886719" height="57.886719" transform="translate(0.056641 0.056641)" fill="#FFFFFF" fill-opacity="0"/>
	<g clip-path="url(#clip403_666)">
		<path id="Vector" d="M55.28 5.43L2.71 5.43C2.21 5.43 1.81 5.03 1.81 4.53L1.81 2.71C1.81 2.21 2.21 1.81 2.71 1.81L55.28 1.81C55.78 1.81 56.18 2.21 56.18 2.71L56.18 4.53C56.18 5.03 55.78 5.43 55.28 5.43Z" fill="#FFDD63" fill-opacity="1.000000" fill-rule="nonzero"/>
		<path id="Vector" d="M49.84 22.65L51.65 22.65L51.65 29L49.84 29L49.84 22.65Z" fill="#242734" fill-opacity="1.000000" fill-rule="nonzero"/>
		<path id="Vector" d="M40.78 22.65L42.59 22.65L42.59 29L40.78 29L40.78 22.65Z" fill="#242734" fill-opacity="1.000000" fill-rule="nonzero"/>
		<path id="Vector" d="M54.53 35.34L46.96 35.34L47.79 30.36C48.01 29.04 49.13 28.09 50.47 28.09L51.02 28.09C52.36 28.09 53.48 29.04 53.7 30.36L54.53 35.34Z" fill="#FFDD63" fill-opacity="1.000000" fill-rule="nonzero"/>
		<path id="Vector" d="M41.68 35.34C39.68 35.34 38.06 33.71 38.06 31.71C38.06 29.71 39.68 28.09 41.68 28.09C43.68 28.09 45.31 29.71 45.31 31.71C45.31 33.71 43.68 35.34 41.68 35.34Z" fill="#FFDD63" fill-opacity="1.000000" fill-rule="nonzero"/>
		<path id="Vector" d="M51.65 48.93L48.03 48.93C47.02 48.93 46.21 48.12 46.21 47.12L46.21 45.31L53.46 45.31L53.46 47.12C53.46 48.12 52.65 48.93 51.65 48.93Z" fill="#FFDD63" fill-opacity="1.000000" fill-rule="nonzero"/>
		<path id="Vector" d="M38.96 48.93L35.34 48.93C34.34 48.93 33.53 48.12 33.53 47.12L33.53 45.31L40.78 45.31L40.78 47.12C40.78 48.12 39.97 48.93 38.96 48.93Z" fill="#FFDD63" fill-opacity="1.000000" fill-rule="nonzero"/>
		<path id="Vector" d="M26.28 48.93L22.65 48.93C21.65 48.93 20.84 48.12 20.84 47.12L20.84 45.31L28.09 45.31L28.09 47.12C28.09 48.12 27.28 48.93 26.28 48.93Z" fill="#FFDD63" fill-opacity="1.000000" fill-rule="nonzero"/>
		<path id="Vector" d="M55.28 5.43L53.46 5.43L53.46 19.03L42.59 19.03L42.59 5.43L40.78 5.43L40.78 19.03L29.9 19.03L29.9 5.43L28.09 5.43L28.09 19.03L17.21 19.03L17.21 5.43L15.4 5.43L15.4 19.03L4.53 19.03L4.53 5.43L2.71 5.43L2.71 20.84L55.28 20.84L55.28 5.43Z" fill="#242734" fill-opacity="1.000000" fill-rule="nonzero"/>
		<path id="Vector" d="M19.03 9.96L20.84 9.96L20.84 15.4L19.03 15.4L19.03 9.96Z" fill="#242734" fill-opacity="1.000000" fill-rule="nonzero"/>
		<path id="Vector" d="M11.78 9.96L13.59 9.96L13.59 15.4L11.78 15.4L11.78 9.96Z" fill="#242734" fill-opacity="1.000000" fill-rule="nonzero"/>
		<path id="Vector" d="M44.4 9.96L46.21 9.96L46.21 15.4L44.4 15.4L44.4 9.96Z" fill="#242734" fill-opacity="1.000000" fill-rule="nonzero"/>
		<path id="Vector" d="M37.15 9.96L38.96 9.96L38.96 15.4L37.15 15.4L37.15 9.96Z" fill="#242734" fill-opacity="1.000000" fill-rule="nonzero"/>
		<path id="Vector" d="M32.6 37.15C33.17 36.39 33.53 35.46 33.53 34.43L33.53 29.9L35.34 29.9L35.34 28.09L31.55 28.09C31.65 27.8 31.71 27.5 31.71 27.18C31.71 25.68 30.49 24.46 29 24.46L25.37 24.46C23.87 24.46 22.65 25.68 22.65 27.18C22.65 27.5 22.72 27.8 22.82 28.09L19.03 28.09L19.03 29.9L20.84 29.9L20.84 34.43C20.84 35.46 21.19 36.39 21.77 37.15L17.21 37.15L17.21 57.09L57.09 57.09L57.09 37.15L32.6 37.15ZM55.28 40.78L44.4 40.78L44.4 38.96L55.28 38.96L55.28 40.78ZM31.71 40.78L31.71 38.96L42.59 38.96L42.59 40.78L31.71 40.78ZM42.59 42.59L42.59 55.28L31.71 55.28L31.71 42.59L42.59 42.59ZM24.46 27.18C24.46 26.68 24.87 26.28 25.37 26.28L29 26.28C29.49 26.28 29.9 26.68 29.9 27.18C29.9 27.68 29.49 28.09 29 28.09L25.37 28.09C24.87 28.09 24.46 27.68 24.46 27.18ZM25.37 29.9L29 29.9L31.71 29.9L31.71 31.71L22.65 31.71L22.65 29.9L25.37 29.9ZM22.65 34.43L22.65 33.53L31.71 33.53L31.71 34.43C31.71 35.93 30.49 37.15 29 37.15L25.37 37.15C23.87 37.15 22.65 35.93 22.65 34.43ZM25.37 38.96L29 38.96L29.9 38.96L29.9 40.78L19.03 40.78L19.03 38.96L25.37 38.96ZM19.03 42.59L29.9 42.59L29.9 55.28L19.03 55.28L19.03 42.59ZM44.4 55.28L44.4 42.59L55.28 42.59L55.28 55.28L44.4 55.28Z" fill="#242734" fill-opacity="1.000000" fill-rule="nonzero"/>
		<path id="Vector" d="M9.06 22.65C6.56 22.65 4.53 24.68 4.53 27.18L4.53 33.53L0.9 33.53L0.9 37.15L0.9 38.06L0.9 41.68L0.9 42.59L0.9 57.09L13.59 57.09L13.59 42.59L15.4 42.59L15.4 37.15L8.15 37.15L8.15 33.53L6.34 33.53L6.34 27.18C6.34 25.68 7.56 24.46 9.06 24.46C10.56 24.46 11.78 25.68 11.78 27.18L9.96 27.18L9.96 29L15.4 29L15.4 27.18L13.59 27.18C13.59 24.68 11.56 22.65 9.06 22.65ZM11.78 55.28L2.71 55.28L2.71 42.59L11.78 42.59L11.78 55.28ZM13.59 40.78L2.71 40.78L2.71 38.96L13.59 38.96L13.59 40.78ZM2.71 37.15L2.71 35.34L6.34 35.34L6.34 37.15L2.71 37.15Z" fill="#242734" fill-opacity="1.000000" fill-rule="nonzero"/>
		<path id="Vector" d="M4.53 51.65L6.34 51.65L6.34 53.46L4.53 53.46L4.53 51.65Z" fill="#242734" fill-opacity="1.000000" fill-rule="nonzero"/>
		<path id="Vector" d="M4.53 44.4L6.34 44.4L6.34 46.21L4.53 46.21L4.53 44.4Z" fill="#242734" fill-opacity="1.000000" fill-rule="nonzero"/>
		<path id="Vector" d="M4.53 48.03L6.34 48.03L6.34 49.84L4.53 49.84L4.53 48.03Z" fill="#242734" fill-opacity="1.000000" fill-rule="nonzero"/>
	</g>
</svg>
