<svg width="27.185059" height="28.715332" viewBox="0 0 27.1851 28.7153" fill="none" xmlns="http://www.w3.org/2000/svg" xmlns:xlink="http://www.w3.org/1999/xlink">
	<desc>
			Created with Pixso.
	</desc>
	<defs/>
	<path id="Vector" d="M5.82 20.9C6.72 21.88 7.81 22.68 9.02 23.25C10.24 23.82 11.58 24.15 12.94 24.2C14.3 24.25 15.68 24.03 16.98 23.55C18.28 23.07 19.49 22.32 20.52 21.35C21.56 20.38 22.4 19.21 22.99 17.91C23.58 16.6 23.93 15.16 23.98 13.71C24.03 12.25 23.8 10.77 23.29 9.38C22.77 7.99 21.99 6.7 20.98 5.6C19.96 4.5 18.72 3.6 17.36 2.97C15.99 2.34 14.48 1.98 12.95 1.93C11.42 1.88 9.87 2.12 8.42 2.68C6.97 3.23 5.62 4.07 4.48 5.15C3.33 6.24 2.39 7.55 1.73 9.01C1.06 10.48 0.69 12.08 0.64 13.71C0.59 15.34 0.86 16.98 1.43 18.52C2 20.07 2.88 21.5 4.02 22.71L5.82 20.9ZM4.01 22.72C2.81 21.58 1.81 20.19 1.13 18.65C0.44 17.11 0.05 15.43 0 13.71C-0.05 12 0.23 10.27 0.84 8.65C1.45 7.03 2.38 5.52 3.57 4.25C4.76 2.97 6.21 1.92 7.81 1.19C9.42 0.47 11.17 0.05 12.95 0C14.73 -0.05 16.52 0.25 18.21 0.89C19.9 1.54 21.46 2.53 22.78 3.79C24.1 5.05 25.19 6.58 25.95 8.28C26.71 9.97 27.12 11.83 27.17 13.71C27.23 15.58 26.91 17.49 26.24 19.26C25.57 21.04 24.54 22.69 23.23 24.09C21.92 25.48 20.33 26.63 18.57 27.42C16.81 28.21 14.89 28.65 12.94 28.71C11 28.76 9.03 28.43 7.2 27.72C5.35 27.01 3.65 25.92 2.21 24.54L4.01 22.72Z" fill="#FFFFFF" fill-opacity="1.000000" fill-rule="nonzero"/>
	<path id="Vector" d="M16.61 14.35C16.61 16.02 15.26 17.38 13.59 17.38C11.93 17.38 10.57 16.02 10.57 14.35C10.57 12.68 11.93 11.33 13.59 11.33C15.26 11.33 16.61 12.68 16.61 14.35Z" fill="#FFFFFF" fill-opacity="1.000000" fill-rule="evenodd"/>
</svg>
