<svg width="32.000000" height="32.000366" viewBox="0 0 32 32.0004" fill="none" xmlns="http://www.w3.org/2000/svg" xmlns:xlink="http://www.w3.org/1999/xlink">
	<desc>
			Created with Pixso.
	</desc>
	<defs/>
	<path id="Shape" d="M9.40405 0.0966797C11.1101 0.019043 11.6558 0 15.9966 0L16.0015 0C20.3438 0 20.8872 0.019043 22.5933 0.0966797C24.2966 0.174683 25.46 0.444336 26.48 0.839966C27.5332 1.24829 28.4233 1.79504 29.3132 2.68506C30.2034 3.57434 30.75 4.46704 31.1599 5.51941C31.5532 6.53674 31.8232 7.69946 31.9033 9.40271C31.98 11.1095 32 11.6548 32 16.0001C32 20.3456 31.98 20.8895 31.9033 22.5962C31.8232 24.299 31.5532 25.4619 31.1599 26.4796C30.75 27.5316 30.2034 28.4243 29.3132 29.3136C28.4243 30.2036 27.533 30.7517 26.481 31.1603C25.4629 31.556 24.2988 31.8257 22.5955 31.9037C20.8889 31.9813 20.3452 32.0004 15.9995 32.0004C11.6545 32.0004 11.1094 31.9813 9.40283 31.9037C7.69971 31.8257 6.53662 31.556 5.5188 31.1603C4.46704 30.7517 3.57446 30.2036 2.6853 29.3136C1.79565 28.4243 1.24902 27.5316 0.840088 26.4792C0.44458 25.4619 0.175049 24.2992 0.0966797 22.5959C0.0192871 20.8892 0 20.3456 0 16.0001C0 11.6548 0.0200195 11.1091 0.0964355 9.40247C0.173096 7.69971 0.443115 6.53674 0.8396 5.51904C1.24976 4.46704 1.79639 3.57434 2.68628 2.68506C3.57568 1.79541 4.46826 1.24866 5.52075 0.839966C6.53809 0.444336 7.70068 0.174683 9.40405 0.0966797ZM14.5662 2.88342C14.845 2.88293 15.1448 2.88306 15.4683 2.88318C15.6392 2.8833 15.8169 2.88342 16.0015 2.88342C20.2734 2.88342 20.7798 2.89868 22.4668 2.97534C24.0269 3.04675 24.8735 3.30737 25.4375 3.52637C26.1843 3.81641 26.7166 4.16309 27.2764 4.72302C27.8362 5.28308 28.1829 5.81641 28.4736 6.56311C28.6926 7.12646 28.9536 7.97314 29.0247 9.53308C29.1013 11.2197 29.1179 11.7264 29.1179 15.9965C29.1179 20.2666 29.1013 20.7732 29.0247 22.46C28.9534 24.0199 28.6926 24.8666 28.4736 25.4299C28.1836 26.1766 27.8362 26.7083 27.2764 27.2679C26.7163 27.828 26.1846 28.1747 25.4375 28.4646C24.8743 28.6847 24.0269 28.9446 22.4668 29.016C20.7803 29.0927 20.2734 29.1093 16.0015 29.1093C11.729 29.1093 11.2229 29.0927 9.53613 29.016C7.97607 28.944 7.12939 28.6833 6.56519 28.4644C5.81836 28.1743 5.28516 27.8276 4.7251 27.2676C4.16504 26.7076 3.81836 26.1757 3.52759 25.4286C3.30859 24.8652 3.04761 24.0186 2.97681 22.4586C2.90015 20.7719 2.88477 20.2653 2.88477 15.9926C2.88477 11.7198 2.90015 11.2158 2.97681 9.52905C3.0481 7.96912 3.30859 7.12244 3.52759 6.55835C3.81763 5.81177 4.16504 5.27844 4.7251 4.71838C5.28516 4.15833 5.81836 3.81165 6.56519 3.521C7.12915 3.30103 7.97607 3.04102 9.53613 2.96936C11.0122 2.90271 11.5842 2.88269 14.5662 2.87939L14.5662 2.88342ZM22.6223 7.45935C22.6223 6.39905 23.4822 5.54004 24.5422 5.54004L24.5422 5.53943C25.6023 5.53943 26.4622 6.39941 26.4622 7.45935C26.4622 8.51941 25.6023 9.37939 24.5422 9.37939C23.4822 9.37939 22.6223 8.51941 22.6223 7.45935ZM16.0012 7.78345C11.4636 7.78357 7.78467 11.4625 7.78467 16.0001C7.78467 20.5378 11.4639 24.2152 16.0015 24.2152C20.5393 24.2152 24.2168 20.5378 24.2168 16.0001C24.2168 11.4624 20.5388 7.78345 16.0012 7.78345ZM21.335 16.0001C21.335 13.0544 18.9468 10.6667 16.0015 10.6667C13.0559 10.6667 10.6682 13.0544 10.6682 16.0001C10.6682 18.9456 13.0559 21.3335 16.0015 21.3335C18.9468 21.3335 21.335 18.9456 21.335 16.0001Z" clip-rule="evenodd" fill="#242734" fill-opacity="1.000000" fill-rule="evenodd"/>
</svg>
