<svg width="84.000000" height="84.000000" viewBox="0 0 84 84" fill="none" xmlns="http://www.w3.org/2000/svg" xmlns:xlink="http://www.w3.org/1999/xlink">
	<desc>
			Created with Pixso.
	</desc>
	<defs>
		<clipPath id="clip425_935">
			<rect id="shipped 2" rx="0.000000" width="83.835938" height="83.835938" transform="translate(0.082031 0.082031)" fill="white" fill-opacity="0"/>
		</clipPath>
	</defs>
	<rect id="shipped 2" rx="0.000000" width="83.835938" height="83.835938" transform="translate(0.082031 0.082031)" fill="#FFFFFF" fill-opacity="0"/>
	<g clip-path="url(#clip425_935)">
		<rect id="Rectangle 249" x="71.000000" y="47.000000" width="4.000000" height="4.000000" fill="#FFDD63" fill-opacity="1.000000"/>
		<circle id="Ellipse 15" cx="22.000000" cy="61.000000" r="6.000000" fill="#FFDD63" fill-opacity="1.000000"/>
		<circle id="Ellipse 16" cx="64.000000" cy="61.000000" r="6.000000" fill="#FFDD63" fill-opacity="1.000000"/>
		<path id="Vector" d="M71.4 40.58L69.41 32.63C69.95 32.52 70.36 32.03 70.36 31.46L70.36 30.17C70.36 27.39 68.1 25.12 65.31 25.12L56.26 25.12L56.26 22.48C56.26 21.11 55.14 20 53.77 20L7.61 20C6.24 20 5.12 21.11 5.12 22.48L5.12 44.28C5.12 44.94 5.66 45.48 6.33 45.48C6.99 45.48 7.53 44.94 7.53 44.28L7.53 22.48C7.53 22.44 7.56 22.4 7.61 22.4L53.77 22.4C53.82 22.4 53.85 22.44 53.85 22.48L53.85 44.28C53.85 44.94 54.39 45.48 55.05 45.48C55.72 45.48 56.26 44.94 56.26 44.28L56.26 42.92L70.44 42.92C70.44 42.92 70.44 42.92 70.44 42.92C70.44 42.92 70.44 42.92 70.44 42.92C72.19 42.92 73.67 44.06 74.18 45.64L70.44 45.64C69.78 45.64 69.24 46.18 69.24 46.84L69.24 49.41C69.24 51.49 70.93 53.18 73.01 53.18L74.37 53.18L74.37 58.46L71.23 58.46C70.19 55.48 67.36 53.34 64.03 53.34C60.7 53.34 57.87 55.48 56.84 58.46L56.26 58.46L56.26 49.41C56.26 48.74 55.72 48.21 55.05 48.21C54.39 48.21 53.85 48.74 53.85 49.41L53.85 58.46L28.91 58.46C27.88 55.48 25.04 53.34 21.71 53.34C18.39 53.34 15.55 55.48 14.52 58.46L7.61 58.46C7.56 58.46 7.53 58.43 7.53 58.38L7.53 55.74L12.74 55.74C13.4 55.74 13.94 55.2 13.94 54.54C13.94 53.87 13.4 53.34 12.74 53.34L1.2 53.34C0.53 53.34 0 53.87 0 54.54C0 55.2 0.53 55.74 1.2 55.74L5.12 55.74L5.12 58.38C5.12 59.75 6.24 60.87 7.61 60.87L14.1 60.87C14.1 60.9 14.1 60.92 14.1 60.95C14.1 65.15 17.52 68.56 21.71 68.56C25.91 68.56 29.33 65.15 29.33 60.95C29.33 60.92 29.33 60.9 29.33 60.87L56.42 60.87C56.42 60.9 56.42 60.92 56.42 60.95C56.42 65.15 59.83 68.56 64.03 68.56C68.23 68.56 71.64 65.15 71.64 60.95C71.64 60.92 71.64 60.9 71.64 60.87L75.57 60.87C76.24 60.87 76.77 60.33 76.77 59.67L76.77 46.84C76.77 43.68 74.44 41.05 71.4 40.58ZM56.26 27.53L65.31 27.53C66.77 27.53 67.96 28.72 67.96 30.17L67.96 30.25L56.26 30.25L56.26 27.53ZM56.26 40.51L56.26 32.66L66.94 32.66L68.9 40.51L56.26 40.51ZM21.71 66.16C18.84 66.16 16.5 63.82 16.5 60.95C16.5 58.08 18.84 55.74 21.71 55.74C24.59 55.74 26.92 58.08 26.92 60.95C26.92 63.82 24.59 66.16 21.71 66.16ZM64.03 66.16C61.16 66.16 58.82 63.82 58.82 60.95C58.82 58.08 61.16 55.74 64.03 55.74C66.9 55.74 69.24 58.08 69.24 60.95C69.24 63.82 66.9 66.16 64.03 66.16ZM74.37 50.77L73.01 50.77C72.26 50.77 71.64 50.16 71.64 49.41L71.64 48.05L74.37 48.05L74.37 50.77L74.37 50.77Z" fill="#242734" fill-opacity="1.000000" fill-rule="nonzero"/>
		<path id="Vector" d="M69.41 32.63C69.95 32.52 70.36 32.03 70.36 31.46L70.36 30.17C70.36 27.39 68.1 25.12 65.31 25.12L56.26 25.12L56.26 22.48C56.26 21.11 55.14 20 53.77 20L7.61 20C6.24 20 5.12 21.11 5.12 22.48L5.12 44.28C5.12 44.94 5.66 45.48 6.33 45.48C6.99 45.48 7.53 44.94 7.53 44.28L7.53 22.48C7.53 22.44 7.56 22.4 7.61 22.4L53.77 22.4C53.82 22.4 53.85 22.44 53.85 22.48L53.85 44.28C53.85 44.94 54.39 45.48 55.05 45.48C55.72 45.48 56.26 44.94 56.26 44.28L56.26 42.92L70.44 42.92C70.44 42.92 70.44 42.92 70.44 42.92C70.44 42.92 70.44 42.92 70.44 42.92C72.19 42.92 73.67 44.06 74.18 45.64L70.44 45.64C69.78 45.64 69.24 46.18 69.24 46.84L69.24 49.41C69.24 51.49 70.93 53.18 73.01 53.18L74.37 53.18L74.37 58.46L71.23 58.46C70.19 55.48 67.36 53.34 64.03 53.34C60.7 53.34 57.87 55.48 56.84 58.46L56.26 58.46L56.26 49.41C56.26 48.74 55.72 48.21 55.05 48.21C54.39 48.21 53.85 48.74 53.85 49.41L53.85 58.46L28.91 58.46C27.88 55.48 25.04 53.34 21.71 53.34C18.39 53.34 15.55 55.48 14.52 58.46L7.61 58.46C7.56 58.46 7.53 58.43 7.53 58.38L7.53 55.74L12.74 55.74C13.4 55.74 13.94 55.2 13.94 54.54C13.94 53.87 13.4 53.34 12.74 53.34L1.2 53.34C0.53 53.34 0 53.87 0 54.54C0 55.2 0.53 55.74 1.2 55.74L5.12 55.74L5.12 58.38C5.12 59.75 6.24 60.87 7.61 60.87L14.1 60.87C14.1 60.9 14.1 60.92 14.1 60.95C14.1 65.15 17.52 68.56 21.71 68.56C25.91 68.56 29.33 65.15 29.33 60.95C29.33 60.92 29.33 60.9 29.33 60.87L56.42 60.87C56.42 60.9 56.42 60.92 56.42 60.95C56.42 65.15 59.83 68.56 64.03 68.56C68.23 68.56 71.64 65.15 71.64 60.95C71.64 60.92 71.64 60.9 71.64 60.87L75.57 60.87C76.24 60.87 76.77 60.33 76.77 59.67L76.77 46.84C76.77 43.68 74.44 41.05 71.4 40.58L69.41 32.63ZM65.31 27.53C66.77 27.53 67.96 28.72 67.96 30.17L67.96 30.25L56.26 30.25L56.26 27.53L65.31 27.53ZM56.26 32.66L66.94 32.66L68.9 40.51L56.26 40.51L56.26 32.66ZM16.5 60.95C16.5 58.08 18.84 55.74 21.71 55.74C24.59 55.74 26.92 58.08 26.92 60.95C26.92 63.82 24.59 66.16 21.71 66.16C18.84 66.16 16.5 63.82 16.5 60.95ZM58.82 60.95C58.82 58.08 61.16 55.74 64.03 55.74C66.9 55.74 69.24 58.08 69.24 60.95C69.24 63.82 66.9 66.16 64.03 66.16C61.16 66.16 58.82 63.82 58.82 60.95ZM73.01 50.77C72.26 50.77 71.64 50.16 71.64 49.41L71.64 48.05L74.37 48.05L74.37 50.77L74.37 50.77L73.01 50.77Z" stroke="#FFFFFF" stroke-opacity="1.000000" stroke-width="0.457017"/>
		<path id="Vector" d="M21.71 58.46C20.34 58.46 19.23 59.58 19.23 60.95C19.23 62.32 20.34 63.43 21.71 63.43C23.08 63.43 24.2 62.32 24.2 60.95C24.2 59.58 23.08 58.46 21.71 58.46Z" fill="#242734" fill-opacity="1.000000" fill-rule="nonzero"/>
		<path id="Vector" d="M19.23 60.95C19.23 62.32 20.34 63.43 21.71 63.43C23.08 63.43 24.2 62.32 24.2 60.95C24.2 59.58 23.08 58.46 21.71 58.46C20.34 58.46 19.23 59.58 19.23 60.95Z" stroke="#FFFFFF" stroke-opacity="1.000000" stroke-width="0.457017"/>
		<path id="Vector" d="M64.03 58.46C62.66 58.46 61.55 59.58 61.55 60.95C61.55 62.32 62.66 63.43 64.03 63.43C65.4 63.43 66.52 62.32 66.52 60.95C66.52 59.58 65.4 58.46 64.03 58.46Z" fill="#242734" fill-opacity="1.000000" fill-rule="nonzero"/>
		<path id="Vector" d="M61.55 60.95C61.55 62.32 62.66 63.43 64.03 63.43C65.4 63.43 66.52 62.32 66.52 60.95C66.52 59.58 65.4 58.46 64.03 58.46C62.66 58.46 61.55 59.58 61.55 60.95Z" stroke="#FFFFFF" stroke-opacity="1.000000" stroke-width="0.457017"/>
		<path id="Vector" d="M49.92 53.34L31.97 53.34C31.31 53.34 30.77 53.87 30.77 54.54C30.77 55.2 31.31 55.74 31.97 55.74L49.92 55.74C50.59 55.74 51.13 55.2 51.13 54.54C51.13 53.87 50.59 53.34 49.92 53.34Z" fill="#242734" fill-opacity="1.000000" fill-rule="nonzero"/>
		<path id="Vector" d="M31.97 53.34C31.31 53.34 30.77 53.87 30.77 54.54C30.77 55.2 31.31 55.74 31.97 55.74L49.92 55.74C50.59 55.74 51.13 55.2 51.13 54.54C51.13 53.87 50.59 53.34 49.92 53.34L31.97 53.34Z" stroke="#FFFFFF" stroke-opacity="1.000000" stroke-width="0.457017"/>
		<path id="Vector" d="M19.15 48.21L3.76 48.21C3.1 48.21 2.56 48.74 2.56 49.41C2.56 50.07 3.1 50.61 3.76 50.61L19.15 50.61C19.81 50.61 20.35 50.07 20.35 49.41C20.35 48.74 19.81 48.21 19.15 48.21Z" fill="#242734" fill-opacity="1.000000" fill-rule="nonzero"/>
		<path id="Vector" d="M3.76 48.21C3.1 48.21 2.56 48.74 2.56 49.41C2.56 50.07 3.1 50.61 3.76 50.61L19.15 50.61C19.81 50.61 20.35 50.07 20.35 49.41C20.35 48.74 19.81 48.21 19.15 48.21L3.76 48.21Z" stroke="#FFFFFF" stroke-opacity="1.000000" stroke-width="0.457017"/>
		<path id="Vector" d="M41.8 31.89C41.33 31.42 40.57 31.42 40.1 31.89L29.41 42.58L23.85 37.02C23.38 36.55 22.62 36.55 22.15 37.02C21.68 37.49 21.68 38.25 22.15 38.72L28.56 45.13C28.79 45.36 29.1 45.48 29.41 45.48C29.72 45.48 30.02 45.36 30.26 45.13L41.8 33.59C42.27 33.12 42.27 32.36 41.8 31.89Z" fill="#242734" fill-opacity="1.000000" fill-rule="nonzero"/>
		<path id="Vector" d="M40.1 31.89L29.41 42.58L23.85 37.02C23.38 36.55 22.62 36.55 22.15 37.02C21.68 37.49 21.68 38.25 22.15 38.72L28.56 45.13C28.79 45.36 29.1 45.48 29.41 45.48C29.72 45.48 30.02 45.36 30.26 45.13L41.8 33.59C42.27 33.12 42.27 32.36 41.8 31.89C41.33 31.42 40.57 31.42 40.1 31.89Z" stroke="#FFFFFF" stroke-opacity="1.000000" stroke-width="0.457017"/>
	</g>
</svg>
