<svg width="35.974854" height="38.000000" viewBox="0 0 35.9749 38" fill="none" xmlns="http://www.w3.org/2000/svg" xmlns:xlink="http://www.w3.org/1999/xlink">
	<desc>
			Created with Pixso.
	</desc>
	<defs/>
	<path id="Vector" d="M7.7 27.66C8.89 28.96 10.34 30.02 11.94 30.77C13.56 31.53 15.33 31.95 17.13 32.02C18.93 32.09 20.76 31.81 22.48 31.16C24.19 30.53 25.79 29.53 27.16 28.25C28.53 26.97 29.65 25.43 30.43 23.7C31.21 21.97 31.66 20.07 31.73 18.14C31.8 16.21 31.5 14.25 30.82 12.42C30.14 10.58 29.1 8.87 27.76 7.42C26.41 5.96 24.78 4.77 22.97 3.93C21.16 3.1 19.16 2.62 17.14 2.55C15.11 2.48 13.07 2.81 11.15 3.55C9.23 4.27 7.44 5.39 5.92 6.82C4.41 8.26 3.16 10 2.29 11.93C1.41 13.87 0.92 15.99 0.85 18.14C0.78 20.3 1.13 22.47 1.89 24.51C2.65 26.56 3.82 28.45 5.32 30.06L7.7 27.66ZM5.31 30.07C3.72 28.56 2.4 26.73 1.5 24.68C0.58 22.65 0.07 20.41 0 18.14C-0.07 15.88 0.31 13.59 1.11 11.44C1.92 9.3 3.15 7.31 4.72 5.62C6.3 3.93 8.22 2.54 10.34 1.58C12.47 0.62 14.79 0.07 17.14 0C19.49 -0.07 21.87 0.33 24.1 1.18C26.33 2.04 28.4 3.35 30.15 5.01C31.9 6.68 33.34 8.71 34.34 10.96C35.34 13.2 35.89 15.66 35.96 18.14C36.03 20.62 35.62 23.14 34.72 25.49C33.84 27.85 32.47 30.03 30.74 31.88C29.01 33.72 26.9 35.24 24.57 36.28C22.24 37.33 19.7 37.92 17.13 37.99C14.56 38.06 11.95 37.62 9.52 36.68C7.08 35.75 4.83 34.3 2.92 32.48L5.31 30.07Z" fill="#FFFFFF" fill-opacity="1.000000" fill-rule="nonzero"/>
</svg>
