<svg width="14.000244" height="14.000244" viewBox="0 0 14.0002 14.0002" fill="none" xmlns="http://www.w3.org/2000/svg" xmlns:xlink="http://www.w3.org/1999/xlink">
	<desc>
			Created with Pixso.
	</desc>
	<defs/>
	<path id="Vector" d="M0.5 0.67L3.35 0.01C3.66 -0.06 3.97 0.1 4.1 0.39L5.41 3.45C5.53 3.72 5.45 4.04 5.22 4.22L3.57 5.58C4.55 7.67 6.27 9.42 8.41 10.42L9.77 8.76C9.95 8.54 10.27 8.46 10.53 8.58L13.6 9.89C13.89 10.02 14.05 10.33 13.98 10.64L13.32 13.49C13.25 13.78 12.99 14 12.68 14C5.68 14 0 8.32 0 1.31C0 1 0.21 0.74 0.5 0.67Z" fill="#242734" fill-opacity="1.000000" fill-rule="nonzero"/>
</svg>
