<svg width="156.000000" height="60.149414" viewBox="0 0 156 60.1494" fill="none" xmlns="http://www.w3.org/2000/svg" xmlns:xlink="http://www.w3.org/1999/xlink">
	<desc>
			Created with Pixso.
	</desc>
	<defs/>
	<rect id="Frame 3" rx="0.000000" width="155.000000" height="46.000000" transform="translate(0.500000 0.500000)" fill="#FFFFFF" fill-opacity="0"/>
	<path id="path4" d="M4.86 4.86L48.62 4.86C48.62 3.57 48.11 2.33 47.2 1.42C46.29 0.51 45.05 0 43.76 0L4.86 0C3.57 0 2.33 0.51 1.42 1.42C0.51 2.33 0 3.57 0 4.86L0 19.45C0 20.74 0.51 21.97 1.42 22.89C2.33 23.8 3.57 24.31 4.86 24.31L43.76 24.31C45.05 24.31 46.29 23.8 47.2 22.89C48.11 21.97 48.62 20.74 48.62 19.45L4.86 19.45L4.86 4.86Z" fill="#242734" fill-opacity="1.000000" fill-rule="evenodd"/>
	<path id="path6" d="M53.49 0L53.49 24.31L97.25 24.31C98.54 24.31 99.78 23.8 100.69 22.89C101.61 21.97 102.12 20.74 102.12 19.45L102.12 14.58C102.12 13.29 101.61 12.06 100.69 11.14C99.78 10.23 98.54 9.72 97.25 9.72L58.35 9.72L58.35 4.86L102.12 4.86L102.12 0L53.49 0ZM58.35 14.58L97.25 14.58L97.25 19.45L58.35 19.45L58.35 14.58Z" fill="#242734" fill-opacity="1.000000" fill-rule="evenodd"/>
	<path id="path8" d="M106.98 0L106.98 24.31L111.84 24.31L111.84 14.58L122 11.2L145.6 24.31L155.61 24.31L128.26 9.11L155.61 0L140.23 0L111.84 9.46L111.84 0L106.98 0Z" fill="#242734" fill-opacity="1.000000" fill-rule="evenodd"/>
	<path id="path10" d="M0.93 28.55L0.93 29.58L155.78 29.58L155.78 28.55L0.93 28.55Z" fill="#242734" fill-opacity="1.000000" fill-rule="evenodd"/>
	<path id="path10" d="M0.93 29.58L155.78 29.58L155.78 28.55L0.93 28.55L0.93 29.58Z" stroke="#242734" stroke-opacity="1.000000" stroke-width="0.115807"/>
	<path id="мебельная компания" d="M24.84 31.67C25.41 31.67 25.84 31.67 26.1 31.48L26.57 32.49C26.1 32.88 25.55 32.91 24.41 32.93C23.12 32.95 22.6 33.51 22.47 34.87L22.53 34.87C22.86 34.19 23.46 33.8 24.35 33.8C25.77 33.8 26.72 34.78 26.72 36.4C26.72 38.1 25.68 39.18 24 39.18C22.32 39.18 21.28 38.1 21.28 36.08L21.28 35.62C21.28 32.95 22.34 31.69 24.36 31.67C24.46 31.67 24.57 31.67 24.66 31.67C24.71 31.67 24.76 31.67 24.8 31.67L24.84 31.67ZM17.7 37.48C17.49 38.51 16.56 39.18 15.19 39.18C13.48 39.18 12.44 38.08 12.44 36.32C12.44 34.61 13.5 33.45 15.13 33.45C16.6 33.45 17.74 34.38 17.74 36.26L17.74 36.69L13.96 36.69L13.96 36.69C13.96 37.52 14.45 38.03 15.22 38.03C15.73 38.03 16.13 37.81 16.28 37.38L17.7 37.48ZM35.53 37.48C35.31 38.51 34.39 39.18 33.01 39.18C31.3 39.18 30.26 38.08 30.26 36.32C30.26 34.61 31.32 33.45 32.95 33.45C34.42 33.45 35.56 34.38 35.56 36.26L35.56 36.69L31.78 36.69L31.78 36.69C31.78 37.52 32.27 38.03 33.04 38.03C33.55 38.03 33.95 37.81 34.1 37.38L35.53 37.48ZM68.91 38.3C68.64 38.81 68.1 39.17 67.28 39.17C66.23 39.17 65.44 38.62 65.44 37.52C65.44 36.28 66.43 35.91 67.53 35.81C68.49 35.71 68.87 35.67 68.87 35.31L68.87 35.29C68.87 34.83 68.57 34.57 68.05 34.57C67.49 34.57 67.17 34.84 67.06 35.21L65.64 35.09C65.85 34.08 66.72 33.45 68.05 33.45C69.29 33.45 70.41 34 70.41 35.32L70.41 39.07L68.95 39.07L68.95 38.3L68.91 38.3ZM101.8 36.31C101.8 38.02 100.75 39.18 99.07 39.18C97.38 39.18 96.34 38.02 96.34 36.31C96.34 34.6 97.38 33.45 99.07 33.45C100.75 33.45 101.8 34.6 101.8 36.31ZM128.13 38.3C127.86 38.81 127.33 39.17 126.51 39.17C125.45 39.17 124.67 38.62 124.67 37.52C124.67 36.28 125.65 35.91 126.75 35.81C127.72 35.71 128.1 35.67 128.1 35.31L128.1 35.29C128.1 34.83 127.8 34.57 127.27 34.57C126.72 34.57 126.39 34.84 126.29 35.21L124.86 35.09C125.08 34.08 125.95 33.45 127.28 33.45C128.52 33.45 129.64 34 129.64 35.32L129.64 39.07L128.18 39.07L128.18 38.3L128.13 38.3ZM3.93 33.52L5.39 37.37L6.89 33.52L8.72 33.52L8.72 39.07L7.27 39.07L7.27 35.54L5.9 39.07L4.87 39.07L3.58 35.66L3.58 39.07L2.11 39.07L2.11 33.52L3.93 33.52ZM39.45 39.07L38.99 39.07L38.98 37.85L39.16 37.85C39.69 37.85 39.9 37.38 39.96 35.98L40.05 33.52L44.27 33.52L44.27 39.07L42.8 39.07L42.8 34.73L41.43 34.73L41.34 36.42C41.25 38.29 40.63 39.07 39.45 39.07ZM49.68 33.52L49.68 35.22L50.83 35.22C52.3 35.22 53.16 35.99 53.17 37.15C53.16 38.3 52.3 39.07 50.83 39.07L48.21 39.07L48.21 33.52L49.68 33.52ZM56.94 33.52L58.41 33.52L58.41 35.68L60.3 35.68L60.3 33.52L61.76 33.52L61.76 39.07L60.3 39.07L60.3 36.89L58.41 36.89L58.41 39.07L56.94 39.07L56.94 33.52ZM79.04 39.07L77.6 39.07L77.6 37.07L76.62 37.07L75.55 39.07L74.08 39.07L75.27 36.83C74.61 36.54 74.23 36.02 74.23 35.35L74.23 35.34L74.23 35.33C74.23 34.25 75.13 33.52 76.56 33.52L79.04 33.52L79.04 39.07ZM89.62 39.07L88.08 39.07L88.08 33.52L89.62 33.52L89.62 35.67L90.05 35.67L91.56 33.52L93.37 33.52L91.41 36.27L93.39 39.07L91.56 39.07L90.19 37.1L89.62 37.1L89.62 39.07ZM107.37 33.52L108.83 37.37L110.33 33.52L112.16 33.52L112.16 39.07L110.71 39.07L110.71 35.54L109.34 39.07L108.31 39.07L107.02 35.66L107.02 39.07L105.55 39.07L105.55 33.52L107.37 33.52ZM117.55 39.07L116.1 39.07L116.1 33.52L120.95 33.52L120.95 39.07L119.48 39.07L119.48 34.73L117.55 34.73L117.55 39.07ZM133.58 33.52L135.05 33.52L135.05 35.68L136.94 35.68L136.94 33.52L138.4 33.52L138.4 39.07L136.94 39.07L136.94 36.89L135.05 36.89L135.05 39.07L133.58 39.07L133.58 33.52ZM143.81 33.52L143.81 37.04L145.81 33.52L147.33 33.52L147.33 39.07L145.86 39.07L145.86 35.54L143.87 39.07L142.34 39.07L142.34 33.52L143.81 33.52ZM156 39.07L154.56 39.07L154.56 37.07L153.57 37.07L152.51 39.07L151.03 39.07L152.23 36.83C151.57 36.54 151.19 36.02 151.19 35.35L151.19 35.34L151.19 35.33C151.19 34.25 152.09 33.52 153.52 33.52L156 33.52L156 39.07ZM15.15 34.6C14.47 34.6 13.99 35.1 13.96 35.73L16.29 35.73C16.28 35.07 15.82 34.6 15.15 34.6ZM32.98 34.6C32.29 34.6 31.81 35.1 31.78 35.73L34.11 35.73C34.11 35.07 33.65 34.6 32.98 34.6ZM97.9 36.3C97.9 37.27 98.3 37.98 99.07 37.98C99.84 37.98 100.23 37.27 100.23 36.3C100.23 35.34 99.84 34.62 99.07 34.62C98.3 34.62 97.9 35.34 97.9 36.3ZM76.55 36.03L77.6 36.03L77.6 34.73L76.56 34.73C76 34.73 75.7 35.02 75.7 35.37L75.7 35.38C75.7 35.39 75.7 35.39 75.7 35.4C75.7 35.75 75.99 36.03 76.55 36.03ZM153.51 36.03L154.56 36.03L154.56 34.73L153.52 34.73C152.96 34.73 152.66 35.02 152.66 35.37L152.66 35.38C152.66 35.39 152.66 35.39 152.66 35.4C152.66 35.75 152.95 36.03 153.51 36.03ZM22.85 36.45C22.85 37.4 23.28 37.98 24.01 37.98C24.71 37.98 25.15 37.4 25.15 36.45C25.15 35.51 24.71 34.97 24 34.97C23.29 34.97 22.85 35.51 22.85 36.45ZM50.83 36.43L49.68 36.43L49.68 37.86L50.83 37.86C51.35 37.86 51.71 37.57 51.72 37.16C51.71 36.74 51.35 36.43 50.83 36.43ZM66.91 37.47C66.91 37.89 67.25 38.11 67.73 38.11C68.4 38.11 68.88 37.67 68.88 37.08L68.88 36.5C68.7 36.62 68.15 36.7 67.81 36.74C67.27 36.82 66.91 37.03 66.91 37.47ZM126.14 37.47C126.14 37.89 126.48 38.11 126.95 38.11C127.63 38.11 128.11 37.67 128.11 37.08L128.11 36.5C127.92 36.62 127.37 36.7 127.04 36.74C126.5 36.82 126.14 37.03 126.14 37.47Z" fill="#242734" fill-opacity="1.000000" fill-rule="evenodd"/>
</svg>
